<svg width="622" height="359" viewBox="0 0 622 359" fill="none" xmlns="http://www.w3.org/2000/svg">
<path d="M128.943 109.543V128H72.1807V109.543H128.943ZM80.3105 21.3594V128H56.4336V21.3594H80.3105ZM121.619 64.2793V82.1504H72.1807V64.2793H121.619ZM129.017 21.3594V39.8896H72.1807V21.3594H129.017ZM152.662 21.3594H193.604C201.759 21.3594 208.814 22.5801 214.771 25.0215C220.777 27.4629 225.392 31.0762 228.614 35.8613C231.837 40.6465 233.448 46.5547 233.448 53.5859C233.448 59.4453 232.496 64.4258 230.592 68.5273C228.688 72.6289 226.002 76.0225 222.535 78.708C219.117 81.3936 215.113 83.5664 210.523 85.2266L202.76 89.4746H167.896L167.75 70.9443H193.678C197.242 70.9443 200.196 70.3096 202.54 69.04C204.884 67.7705 206.642 65.9883 207.813 63.6934C209.034 61.3496 209.645 58.6152 209.645 55.4902C209.645 52.2676 209.034 49.4844 207.813 47.1406C206.593 44.7969 204.786 43.0146 202.394 41.7939C200.05 40.5244 197.12 39.8896 193.604 39.8896H176.539V128H152.662V21.3594ZM211.695 128L187.745 80.6123L212.94 80.5391L237.257 126.901V128H211.695ZM261.635 21.3594H302.577C310.731 21.3594 317.787 22.5801 323.744 25.0215C329.75 27.4629 334.364 31.0762 337.587 35.8613C340.81 40.6465 342.421 46.5547 342.421 53.5859C342.421 59.4453 341.469 64.4258 339.564 68.5273C337.66 72.6289 334.975 76.0225 331.508 78.708C328.09 81.3936 324.086 83.5664 319.496 85.2266L311.732 89.4746H276.869L276.723 70.9443H302.65C306.215 70.9443 309.169 70.3096 311.513 69.04C313.856 67.7705 315.614 65.9883 316.786 63.6934C318.007 61.3496 318.617 58.6152 318.617 55.4902C318.617 52.2676 318.007 49.4844 316.786 47.1406C315.565 44.7969 313.759 43.0146 311.366 41.7939C309.022 40.5244 306.093 39.8896 302.577 39.8896H285.512V128H261.635V21.3594ZM320.668 128L296.718 80.6123L321.913 80.5391L346.229 126.901V128H320.668ZM459.523 72.3359V77.0967C459.523 85.2021 458.4 92.4775 456.154 98.9229C453.957 105.368 450.808 110.861 446.706 115.402C442.653 119.943 437.819 123.435 432.204 125.876C426.638 128.269 420.461 129.465 413.674 129.465C406.887 129.465 400.686 128.269 395.07 125.876C389.455 123.435 384.572 119.943 380.422 115.402C376.32 110.861 373.146 105.368 370.9 98.9229C368.654 92.4775 367.531 85.2021 367.531 77.0967V72.3359C367.531 64.2305 368.654 56.9551 370.9 50.5098C373.146 44.0156 376.296 38.498 380.349 33.957C384.45 29.416 389.309 25.9492 394.924 23.5566C400.539 21.1152 406.74 19.8945 413.527 19.8945C420.314 19.8945 426.516 21.1152 432.131 23.5566C437.746 25.9492 442.58 29.416 446.633 33.957C450.734 38.498 453.908 44.0156 456.154 50.5098C458.4 56.9551 459.523 64.2305 459.523 72.3359ZM435.427 77.0967V72.1895C435.427 66.7695 434.938 61.9844 433.962 57.834C432.985 53.6348 431.569 50.1191 429.714 47.2871C427.858 44.4551 425.563 42.3311 422.829 40.915C420.095 39.4502 416.994 38.7178 413.527 38.7178C409.914 38.7178 406.765 39.4502 404.079 40.915C401.394 42.3311 399.123 44.4551 397.268 47.2871C395.461 50.1191 394.069 53.6348 393.093 57.834C392.165 61.9844 391.701 66.7695 391.701 72.1895V77.0967C391.701 82.4678 392.165 87.2529 393.093 91.4521C394.069 95.6025 395.485 99.1182 397.341 101.999C399.196 104.88 401.467 107.053 404.152 108.518C406.887 109.982 410.061 110.715 413.674 110.715C417.141 110.715 420.217 109.982 422.902 108.518C425.637 107.053 427.932 104.88 429.787 101.999C431.643 99.1182 433.034 95.6025 433.962 91.4521C434.938 87.2529 435.427 82.4678 435.427 77.0967ZM486.172 21.3594H527.114C535.269 21.3594 542.324 22.5801 548.281 25.0215C554.287 27.4629 558.901 31.0762 562.124 35.8613C565.347 40.6465 566.958 46.5547 566.958 53.5859C566.958 59.4453 566.006 64.4258 564.102 68.5273C562.197 72.6289 559.512 76.0225 556.045 78.708C552.627 81.3936 548.623 83.5664 544.033 85.2266L536.27 89.4746H501.406L501.26 70.9443H527.188C530.752 70.9443 533.706 70.3096 536.05 69.04C538.394 67.7705 540.151 65.9883 541.323 63.6934C542.544 61.3496 543.154 58.6152 543.154 55.4902C543.154 52.2676 542.544 49.4844 541.323 47.1406C540.103 44.7969 538.296 43.0146 535.903 41.7939C533.56 40.5244 530.63 39.8896 527.114 39.8896H510.049V128H486.172V21.3594ZM545.205 128L521.255 80.6123L546.45 80.5391L570.767 126.901V128H545.205Z" fill="#F3F1F1"/>
<g filter="url(#filter0_d_1593_2)">
<path d="M366.601 188.271L366.611 219.032C366.616 232.379 365.195 243.895 362.35 253.58C359.505 263.184 355.398 271.079 350.029 277.265C344.741 283.371 338.436 287.889 331.112 290.821C323.789 293.753 315.652 295.221 306.7 295.224C299.538 295.226 292.865 294.333 286.679 292.545C280.494 290.675 274.918 287.788 269.953 283.883C265.069 279.979 260.835 275.057 257.253 269.117C253.751 263.096 251.064 255.935 249.189 247.635C247.315 239.335 246.376 229.814 246.372 219.072L246.362 188.31C246.358 174.964 247.778 163.529 250.623 154.007C253.55 144.403 257.657 136.549 262.945 130.443C268.314 124.338 274.66 119.86 281.983 117.009C289.306 114.077 297.444 112.61 306.396 112.607C313.557 112.604 320.19 113.538 326.294 115.408C332.48 117.196 338.055 120.002 343.021 123.825C347.986 127.649 352.219 132.571 355.721 138.592C359.222 144.531 361.91 151.651 363.784 159.951C365.659 168.17 366.598 177.61 366.601 188.271ZM331.335 223.683L331.321 183.522C331.319 177.092 330.951 171.477 330.217 166.676C329.565 161.875 328.546 157.806 327.162 154.47C325.777 151.053 324.067 148.286 322.032 146.171C319.997 144.056 317.677 142.51 315.072 141.535C312.468 140.559 309.579 140.072 306.405 140.073C302.417 140.074 298.877 140.848 295.785 142.395C292.775 143.943 290.212 146.426 288.097 149.844C285.983 153.182 284.357 157.658 283.219 163.274C282.163 168.808 281.636 175.562 281.639 183.538L281.652 223.699C281.654 230.128 281.981 235.784 282.634 240.666C283.368 245.549 284.427 249.74 285.812 253.239C287.278 256.656 288.988 259.463 290.942 261.66C292.977 263.775 295.297 265.32 297.901 266.296C300.587 267.272 303.517 267.759 306.691 267.758C310.597 267.757 314.055 266.983 317.066 265.435C320.158 263.807 322.761 261.283 324.876 257.864C327.072 254.364 328.698 249.807 329.754 244.191C330.81 238.575 331.337 231.739 331.335 223.683Z" fill="white"/>
<path d="M362.35 253.58L363.309 253.864L363.31 253.862L362.35 253.58ZM350.029 277.265L349.274 276.61L349.273 276.611L350.029 277.265ZM286.679 292.545L286.39 293.502L286.402 293.506L286.679 292.545ZM269.953 283.883L269.328 284.664L269.335 284.669L269.953 283.883ZM257.253 269.117L256.388 269.62L256.392 269.627L256.396 269.634L257.253 269.117ZM249.189 247.635L248.214 247.856L249.189 247.635ZM250.623 154.007L249.667 153.715L249.665 153.721L250.623 154.007ZM262.945 130.443L262.194 129.783L262.189 129.789L262.945 130.443ZM281.983 117.009L282.346 117.941L282.355 117.938L281.983 117.009ZM326.294 115.408L326.001 116.364L326.009 116.366L326.016 116.369L326.294 115.408ZM355.721 138.592L354.856 139.094L354.859 139.099L355.721 138.592ZM363.784 159.951L362.809 160.172L362.809 160.174L363.784 159.951ZM330.217 166.676L329.226 166.811L329.227 166.819L329.229 166.827L330.217 166.676ZM327.162 154.47L326.235 154.846L326.238 154.853L327.162 154.47ZM295.785 142.395L295.338 141.501L295.328 141.506L295.785 142.395ZM288.097 149.844L288.942 150.38L288.948 150.37L288.097 149.844ZM283.219 163.274L282.239 163.075L282.237 163.086L283.219 163.274ZM282.634 240.666L281.643 240.799L281.644 240.807L281.645 240.815L282.634 240.666ZM285.812 253.239L284.882 253.607L284.887 253.62L284.893 253.633L285.812 253.239ZM290.942 261.66L290.195 262.324L290.208 262.339L290.221 262.353L290.942 261.66ZM297.901 266.296L297.55 267.233L297.56 267.236L297.901 266.296ZM317.066 265.435L317.523 266.325L317.532 266.32L317.066 265.435ZM324.876 257.864L324.029 257.333L324.026 257.338L324.876 257.864ZM365.601 188.271L365.611 219.033L367.611 219.032L367.601 188.27L365.601 188.271ZM365.611 219.033C365.616 232.312 364.202 243.728 361.391 253.298L363.31 253.862C366.189 244.061 367.616 232.445 367.611 219.032L365.611 219.033ZM361.391 253.296C358.578 262.792 354.531 270.552 349.274 276.61L350.784 277.921C356.265 271.605 360.432 263.575 363.309 253.864L361.391 253.296ZM349.273 276.611C344.087 282.598 337.912 287.022 330.741 289.893L331.484 291.75C338.959 288.757 345.395 284.143 350.785 277.92L349.273 276.611ZM330.741 289.893C323.55 292.772 315.541 294.221 306.699 294.224L306.7 296.224C315.762 296.221 324.028 294.735 331.484 291.75L330.741 289.893ZM306.699 294.224C299.622 294.226 293.043 293.344 286.957 291.584L286.402 293.506C292.687 295.323 299.455 296.226 306.7 296.224L306.699 294.224ZM286.969 291.588C280.9 289.753 275.436 286.923 270.571 283.097L269.335 284.669C274.4 288.653 280.088 291.597 286.39 293.502L286.969 291.588ZM270.577 283.102C265.795 279.279 261.637 274.45 258.109 268.601L256.396 269.634C260.034 275.663 264.342 280.678 269.328 284.664L270.577 283.102ZM258.117 268.614C254.677 262.698 252.021 255.637 250.164 247.415L248.214 247.856C250.106 256.234 252.826 263.494 256.388 269.62L258.117 268.614ZM250.164 247.415C248.31 239.203 247.376 229.758 247.372 219.071L245.372 219.072C245.376 229.87 246.319 239.467 248.214 247.856L250.164 247.415ZM247.372 219.071L247.362 188.31L245.362 188.31L245.372 219.072L247.372 219.071ZM247.362 188.31C247.358 175.029 248.772 163.697 251.581 154.293L249.665 153.721C246.784 163.362 245.358 174.898 245.362 188.31L247.362 188.31ZM251.58 154.298C254.475 144.797 258.524 137.075 263.701 131.098L262.189 129.789C256.79 136.022 252.624 144.009 249.667 153.715L251.58 154.298ZM263.696 131.104C268.963 125.114 275.177 120.732 282.346 117.941L281.62 116.077C274.143 118.988 267.665 123.562 262.194 129.783L263.696 131.104ZM282.355 117.938C289.545 115.059 297.555 113.61 306.396 113.607L306.396 111.607C297.334 111.61 289.068 113.096 281.612 116.081L282.355 117.938ZM306.396 113.607C313.47 113.604 320.003 114.527 326.001 116.364L326.587 114.452C320.377 112.55 313.644 111.604 306.396 111.607L306.396 113.607ZM326.016 116.369C332.085 118.123 337.547 120.873 342.411 124.618L343.631 123.033C338.563 119.131 332.874 116.269 326.572 114.447L326.016 116.369ZM342.411 124.618C347.262 128.353 351.413 133.173 354.856 139.094L356.585 138.089C353.026 131.968 348.71 126.944 343.631 123.033L342.411 124.618ZM354.859 139.099C358.297 144.932 360.952 151.95 362.809 160.172L364.76 159.731C362.868 151.352 360.147 144.131 356.582 138.084L354.859 139.099ZM362.809 160.174C364.664 168.303 365.598 177.666 365.601 188.271L367.601 188.27C367.598 177.554 366.654 168.037 364.759 159.729L362.809 160.174ZM332.335 223.682L332.321 183.521L330.321 183.522L330.335 223.683L332.335 223.682ZM332.321 183.521C332.319 177.057 331.949 171.389 331.206 166.525L329.229 166.827C329.953 171.566 330.319 177.128 330.321 183.522L332.321 183.521ZM331.208 166.541C330.548 161.682 329.512 157.524 328.085 154.087L326.238 154.853C327.58 158.088 328.582 162.068 329.226 166.811L331.208 166.541ZM328.088 154.095C326.668 150.588 324.895 147.705 322.752 145.478L321.311 146.864C323.239 148.868 324.886 151.517 326.235 154.846L328.088 154.095ZM322.752 145.478C320.62 143.261 318.175 141.629 315.423 140.598L314.722 142.471C317.178 143.391 319.374 144.851 321.311 146.864L322.752 145.478ZM315.423 140.598C312.692 139.575 309.682 139.072 306.405 139.073L306.405 141.073C309.476 141.072 312.244 141.543 314.722 142.471L315.423 140.598ZM306.405 139.073C302.285 139.074 298.589 139.875 295.338 141.501L296.233 143.29C299.166 141.822 302.549 141.074 306.405 141.073L306.405 139.073ZM295.328 141.506C292.128 143.151 289.439 145.774 287.247 149.318L288.948 150.37C290.985 147.077 293.422 144.735 296.243 143.285L295.328 141.506ZM287.253 149.309C285.05 152.785 283.391 157.389 282.239 163.075L284.199 163.472C285.322 157.927 286.915 153.578 288.942 150.38L287.253 149.309ZM282.237 163.086C281.165 168.702 280.636 175.524 280.639 183.538L282.639 183.537C282.636 175.601 283.161 168.914 284.201 163.461L282.237 163.086ZM280.639 183.538L280.652 223.699L282.652 223.699L282.639 183.537L280.639 183.538ZM280.652 223.699C280.654 230.16 280.983 235.862 281.643 240.799L283.625 240.534C282.98 235.706 282.654 230.096 282.652 223.699L280.652 223.699ZM281.645 240.815C282.387 245.751 283.462 250.019 284.882 253.607L286.742 252.871C285.392 249.46 284.349 245.347 283.623 240.518L281.645 240.815ZM284.893 253.633C286.391 257.124 288.153 260.029 290.195 262.324L291.689 260.995C289.823 258.897 288.165 256.188 286.731 252.844L284.893 253.633ZM290.221 262.353C292.354 264.57 294.798 266.202 297.55 267.233L298.252 265.36C295.795 264.439 293.6 262.98 291.662 260.966L290.221 262.353ZM297.56 267.236C300.367 268.256 303.414 268.759 306.691 268.758L306.69 266.758C303.62 266.759 300.808 266.288 298.243 265.356L297.56 267.236ZM306.691 268.758C310.732 268.757 314.351 267.955 317.523 266.325L316.609 264.546C313.76 266.01 310.462 266.757 306.69 266.758L306.691 268.758ZM317.532 266.32C320.804 264.597 323.532 261.938 325.726 258.391L324.026 257.338C321.99 260.628 319.512 263.017 316.6 264.551L317.532 266.32ZM325.723 258.396C328.006 254.758 329.666 250.071 330.737 244.376L328.772 244.006C327.73 249.543 326.138 253.971 324.029 257.333L325.723 258.396ZM330.737 244.376C331.808 238.68 332.337 231.778 332.335 223.682L330.335 223.683C330.337 231.701 329.813 238.471 328.772 244.006L330.737 244.376Z" fill="#E2E2E2"/>
</g>
<g filter="url(#filter1_d_1593_2)">
<path d="M225.497 226.606L225.506 254.194L97.4538 254.236L95.7379 232.874L169.796 115.296L197.75 115.287L167.493 165.956L130.648 226.637L225.497 226.606ZM205.319 115.284L205.377 293.019L170.22 293.03L170.162 115.296L205.319 115.284Z" fill="#F4245F"/>
</g>
<g filter="url(#filter2_d_1593_2)">
<path d="M525.497 224.605L525.506 252.193L397.454 252.235L395.738 230.873L469.796 113.295L497.75 113.286L467.493 163.955L430.648 224.636L525.497 224.605ZM505.319 113.284L505.377 291.018L470.22 291.029L470.162 113.295L505.319 113.284Z" fill="#F4245F"/>
</g>
<path d="M365.183 180.554C364.935 136.514 339.535 118.298 326.864 114.506C363.463 118.067 371.485 151.601 373.573 166.984C374.808 186.882 376.506 231.903 373.423 252.801C370.339 273.699 348.466 285.207 335.118 289.709C368.74 269.135 365.49 235.224 365.183 180.554Z" fill="#F4245F"/>
<path d="M293.308 169.167C294.063 153.062 305.025 142.645 308.441 140.062C291.471 137.964 282.967 155.561 282.424 163.763C281.81 173.035 281.512 198.719 281.766 231.727C282.058 269.549 302.425 268.959 310.436 266.787C301.066 262.235 294.986 249.225 295.276 243.447C294.305 225.397 292.552 185.272 293.308 169.167Z" fill="#F4245F"/>
<defs>
<filter id="filter0_d_1593_2" x="236.337" y="106.587" width="140.3" height="202.656" filterUnits="userSpaceOnUse" color-interpolation-filters="sRGB">
<feFlood flood-opacity="0" result="BackgroundImageFix"/>
<feColorMatrix in="SourceAlpha" type="matrix" values="0 0 0 0 0 0 0 0 0 0 0 0 0 0 0 0 0 0 127 0" result="hardAlpha"/>
<feOffset dy="4"/>
<feGaussianBlur stdDeviation="5"/>
<feComposite in2="hardAlpha" operator="out"/>
<feColorMatrix type="matrix" values="0 0 0 0 0 0 0 0 0 0 0 0 0 0 0 0 0 0 0.08 0"/>
<feBlend mode="normal" in2="BackgroundImageFix" result="effect1_dropShadow_1593_2"/>
<feBlend mode="normal" in="SourceGraphic" in2="effect1_dropShadow_1593_2" result="shape"/>
</filter>
<filter id="filter1_d_1593_2" x="85.6992" y="109.278" width="149.819" height="197.776" filterUnits="userSpaceOnUse" color-interpolation-filters="sRGB">
<feFlood flood-opacity="0" result="BackgroundImageFix"/>
<feColorMatrix in="SourceAlpha" type="matrix" values="0 0 0 0 0 0 0 0 0 0 0 0 0 0 0 0 0 0 127 0" result="hardAlpha"/>
<feOffset dy="4"/>
<feGaussianBlur stdDeviation="5"/>
<feComposite in2="hardAlpha" operator="out"/>
<feColorMatrix type="matrix" values="0 0 0 0 0 0 0 0 0 0 0 0 0 0 0 0 0 0 0.08 0"/>
<feBlend mode="normal" in2="BackgroundImageFix" result="effect1_dropShadow_1593_2"/>
<feBlend mode="normal" in="SourceGraphic" in2="effect1_dropShadow_1593_2" result="shape"/>
</filter>
<filter id="filter2_d_1593_2" x="385.699" y="107.277" width="149.819" height="197.776" filterUnits="userSpaceOnUse" color-interpolation-filters="sRGB">
<feFlood flood-opacity="0" result="BackgroundImageFix"/>
<feColorMatrix in="SourceAlpha" type="matrix" values="0 0 0 0 0 0 0 0 0 0 0 0 0 0 0 0 0 0 127 0" result="hardAlpha"/>
<feOffset dy="4"/>
<feGaussianBlur stdDeviation="5"/>
<feComposite in2="hardAlpha" operator="out"/>
<feColorMatrix type="matrix" values="0 0 0 0 0 0 0 0 0 0 0 0 0 0 0 0 0 0 0.08 0"/>
<feBlend mode="normal" in2="BackgroundImageFix" result="effect1_dropShadow_1593_2"/>
<feBlend mode="normal" in="SourceGraphic" in2="effect1_dropShadow_1593_2" result="shape"/>
</filter>
</defs>
</svg>
