<svg width="137" height="40" viewBox="0 0 137 40" fill="none" xmlns="http://www.w3.org/2000/svg">
<path d="M2 2.66722V25.7451C2 29.928 6.84636 39.2457 17.0006 37.861C29.6935 36.1302 35.7514 19.9756 22.7701 11.3214C19.5969 9.68675 12.4427 8.03283 9.21184 14.4946V25.7451C9.64455 28.4856 14.6928 32.5242 19.8854 28.9183C25.0779 25.3124 21.6162 15.937 14.6928 16.514C17.0006 10.0233 15.8467 -0.794461 2 2.66722Z" stroke="#262626" stroke-width="2.5"/>
<path d="M103.783 11.4841L102.531 13.7061C102.28 13.4592 99.5242 11.9779 98.5221 11.731C97.52 11.4841 92.2589 10.7435 91.7579 14.4467C91.3571 17.4093 95.0147 17.8878 96.5179 18.3815C102.531 19.8628 104.451 21.9355 104.785 23.0876C105.787 27.7784 103.282 30.7409 97.2695 30.9878C92.4594 31.1853 89.0856 28.9305 88 27.7784L89.5032 25.6416C90.5053 27.0923 93.5951 27.9997 95.0147 28.2721C102.029 29.0128 101.779 26.2818 101.779 24.5689C101.779 22.5938 98.0211 21.6063 95.2653 20.8657C93.0606 20.2731 91.8414 19.7958 91.5074 19.6312C87.8998 17.6562 88.6681 14.0352 89.5032 12.4717C90.0042 11.4018 92.0585 9.21283 96.2674 9.01532C100.476 8.81781 103.032 10.5789 103.783 11.4841Z" fill="#262626"/>
<path d="M68.04 9H65L65.2533 22C65.2533 22.8 65.4222 23.8333 65.5067 24.25C66.9253 29.65 71.1644 31 73.1067 31V28.5C69.0533 27.5 68.04 23.5833 68.04 21.75V9Z" fill="#262626"/>
<path d="M80.96 9H84L83.7467 22C83.7467 22.8 83.5778 23.8333 83.4933 24.25C82.0747 29.65 77.8356 31 75.8933 31V28.5C79.9467 27.5 80.96 23.5833 80.96 21.75V9Z" fill="#262626"/>
<path d="M44 9V26H46.819V11.5H54.7635C55.6178 11.8333 57.3776 13 57.5826 15C57.7876 17 55.7886 18.3333 54.7635 18.75H49.638V21H52.7133C56.3012 21 57.4971 22 57.8388 22.75C59.1202 27 56.5575 28.5 54.7635 28.5H44V31H55.2761C57.07 31 60.1453 30 60.9141 26C61.5292 22.8 58.6931 20.3333 57.07 19.75C58.8639 18.75 60.6579 16.75 60.1453 13.25C59.7353 10.45 57.3263 9.25 55.5324 9H44Z" fill="#262626"/>
<path d="M112.725 9H110V31H112.725V9Z" fill="#262626"/>
<path d="M128.33 9H125.853L116.936 31H119.661L128.33 9Z" fill="#262626"/>
<path d="M125.606 22.25L124.615 24.5H131.55L134.028 31H137L129.321 12.25L128.083 15.5L130.807 22.25H125.606Z" fill="#262626"/>
</svg>
